<?xml version="1.0" encoding="UTF-8" standalone="no"?>
<!DOCTYPE svg PUBLIC "-//W3C//DTD SVG 1.1//EN" "http://www.w3.org/Graphics/SVG/1.1/DTD/svg11.dtd">
<svg xmlns="http://www.w3.org/2000/svg" version="1.1" viewBox="0.00 0.00 512.00 512.00">
<path fill="#000000" d="
  M 218.46 96.96
  L 243.49 96.96
  Q 244.10 96.96 244.10 96.34
  Q 244.06 82.79 244.11 67.96
  C 244.16 51.54 268.07 51.63 268.08 67.85
  Q 268.08 82.26 268.08 96.56
  A 0.40 0.40 0.0 0 0 268.48 96.96
  L 293.98 96.96
  A 0.53 0.53 0.0 0 0 294.51 96.43
  Q 294.52 61.25 294.48 29.20
  C 294.48 23.28 296.37 18.59 301.98 16.33
  C 310.23 13.01 318.46 19.00 318.47 27.74
  Q 318.53 64.41 318.49 96.44
  A 0.52 0.51 -90.0 0 0 319.00 96.96
  L 344.54 96.96
  A 0.35 0.35 0.0 0 0 344.89 96.61
  Q 344.97 84.12 344.87 69.11
  C 344.76 51.16 368.82 51.42 368.89 68.01
  Q 368.96 83.20 368.89 97.35
  Q 368.89 97.91 369.44 98.03
  C 372.60 98.75 376.25 99.41 379.18 100.56
  Q 410.96 112.96 418.50 146.72
  Q 418.63 147.32 419.25 147.32
  Q 434.23 147.31 448.19 147.31
  C 459.05 147.31 464.89 158.95 457.91 167.24
  Q 454.55 171.22 449.08 171.26
  Q 435.07 171.37 419.71 171.30
  A 0.42 0.42 0.0 0 0 419.28 171.72
  L 419.28 197.29
  A 0.44 0.44 0.0 0 0 419.72 197.73
  Q 445.98 197.77 477.91 197.72
  C 495.31 197.69 495.23 221.78 478.28 221.77
  Q 447.55 221.74 419.87 221.72
  Q 419.28 221.72 419.28 222.30
  L 419.28 247.50
  Q 419.28 248.15 419.93 248.15
  Q 434.47 248.13 448.14 248.14
  C 465.07 248.16 464.94 272.10 448.50 272.13
  Q 433.85 272.16 419.90 272.13
  Q 419.29 272.13 419.29 272.74
  L 419.27 297.75
  A 0.76 0.75 90.0 0 0 420.02 298.51
  Q 446.39 298.53 477.40 298.48
  C 495.58 298.46 495.12 322.60 478.41 322.55
  Q 447.62 322.47 419.71 322.54
  A 0.43 0.42 0.0 0 0 419.28 322.96
  L 419.28 348.51
  A 0.44 0.44 0.0 0 0 419.73 348.95
  Q 433.74 348.95 448.02 348.96
  C 465.18 348.97 465.06 372.98 448.11 372.96
  Q 433.46 372.95 419.08 372.95
  Q 418.49 372.95 418.39 373.53
  C 413.75 398.81 394.55 417.69 369.44 422.70
  Q 368.92 422.81 368.92 423.34
  Q 368.90 437.21 368.94 452.25
  C 368.98 469.32 344.97 469.34 344.93 452.74
  Q 344.90 438.74 344.93 423.77
  A 0.47 0.46 0.0 0 0 344.46 423.31
  L 318.95 423.31
  A 0.43 0.43 0.0 0 0 318.52 423.74
  Q 318.52 453.79 318.46 483.78
  Q 318.45 488.41 314.80 491.87
  C 307.03 499.26 294.50 493.97 294.50 483.00
  Q 294.48 449.94 294.50 424.03
  A 0.72 0.71 -90.0 0 0 293.79 423.31
  L 268.51 423.31
  A 0.41 0.40 0.0 0 0 268.10 423.71
  Q 268.01 437.22 268.14 451.28
  Q 268.18 455.49 266.89 458.36
  C 263.89 465.04 255.39 467.17 249.41 463.10
  Q 244.14 459.51 244.11 452.83
  Q 244.05 438.19 244.11 423.72
  A 0.42 0.41 0.0 0 0 243.69 423.31
  L 218.27 423.31
  Q 217.71 423.31 217.71 423.87
  Q 217.74 453.50 217.70 483.09
  C 217.68 499.16 193.76 499.32 193.74 483.04
  Q 193.70 455.01 193.75 423.82
  A 0.51 0.51 0.0 0 0 193.24 423.31
  L 167.71 423.31
  A 0.42 0.42 0.0 0 0 167.29 423.73
  Q 167.26 438.00 167.17 452.50
  Q 167.11 462.55 157.98 464.93
  Q 153.06 466.22 148.28 462.96
  C 143.31 459.56 143.19 454.39 143.23 447.67
  Q 143.31 436.38 143.23 423.32
  Q 143.22 422.81 142.73 422.72
  Q 132.84 420.72 125.50 416.74
  Q 99.92 402.88 93.74 373.55
  Q 93.62 372.96 93.01 372.96
  Q 79.57 372.92 64.56 372.98
  Q 54.80 373.02 51.85 364.50
  C 49.85 358.71 53.08 352.03 58.89 349.86
  Q 61.66 348.82 65.83 348.88
  Q 78.83 349.06 92.51 348.92
  Q 92.92 348.92 92.92 348.50
  L 92.92 323.04
  Q 92.92 322.52 92.40 322.52
  Q 63.90 322.49 33.74 322.54
  C 17.06 322.57 17.04 298.54 33.92 298.53
  Q 64.76 298.51 92.41 298.52
  A 0.51 0.51 0.0 0 0 92.92 298.01
  L 92.92 272.56
  A 0.42 0.42 0.0 0 0 92.50 272.14
  Q 77.92 272.11 63.85 272.16
  C 47.23 272.21 47.15 248.14 63.95 248.14
  Q 77.35 248.14 92.55 248.14
  A 0.37 0.37 0.0 0 0 92.92 247.77
  L 92.92 222.27
  Q 92.92 221.76 92.42 221.76
  Q 64.68 221.69 34.63 221.80
  Q 31.45 221.81 29.02 220.97
  C 21.20 218.26 18.62 208.25 24.06 201.97
  C 26.84 198.75 30.33 197.72 34.43 197.72
  Q 62.83 197.77 92.44 197.73
  A 0.48 0.48 0.0 0 0 92.92 197.25
  L 92.92 171.77
  A 0.44 0.43 0.7 0 0 92.49 171.34
  Q 79.28 171.21 65.85 171.39
  Q 60.55 171.47 57.65 169.93
  C 48.61 165.14 49.44 152.01 58.75 148.28
  Q 61.52 147.17 67.92 147.25
  Q 80.46 147.39 93.25 147.27
  Q 93.58 147.26 93.65 146.94
  C 99.08 121.45 116.92 103.19 142.73 98.02
  Q 143.30 97.91 143.30 97.33
  Q 143.28 83.46 143.27 68.57
  Q 143.27 60.71 149.33 57.17
  C 157.38 52.45 167.22 58.45 167.26 67.55
  Q 167.31 81.48 167.27 96.50
  A 0.46 0.46 0.0 0 0 167.73 96.96
  L 193.23 96.96
  A 0.50 0.49 -90.0 0 0 193.72 96.46
  Q 193.73 62.32 193.71 27.92
  Q 193.71 21.98 197.73 18.43
  C 204.17 12.72 214.65 15.50 217.16 23.78
  Q 217.79 25.88 217.78 30.13
  Q 217.64 64.51 217.75 96.24
  Q 217.75 96.96 218.46 96.96
  Z
  M 395.28 156.89
  A 35.92 35.92 0.0 0 0 359.36 120.97
  L 152.84 120.97
  A 35.92 35.92 0.0 0 0 116.92 156.89
  L 116.92 363.41
  A 35.92 35.92 0.0 0 0 152.84 399.33
  L 359.36 399.33
  A 35.92 35.92 0.0 0 0 395.28 363.41
  L 395.28 156.89
  Z"
/>
<path fill="#000000" d="
  M 346.08 338.00
  A 12.14 12.14 0.0 0 1 333.94 350.14
  L 179.42 350.14
  A 12.14 12.14 0.0 0 1 167.28 338.00
  L 167.28 183.46
  A 12.14 12.14 0.0 0 1 179.42 171.32
  L 333.94 171.32
  A 12.14 12.14 0.0 0 1 346.08 183.46
  L 346.08 338.00
  Z
  M 320.92 195.77
  A 0.46 0.46 0.0 0 0 320.46 195.31
  L 191.74 195.31
  A 0.46 0.46 0.0 0 0 191.28 195.77
  L 191.28 325.69
  A 0.46 0.46 0.0 0 0 191.74 326.15
  L 320.46 326.15
  A 0.46 0.46 0.0 0 0 320.92 325.69
  L 320.92 195.77
  Z"
/>
</svg>
