<?xml version="1.0" encoding="UTF-8" standalone="no"?>
<!DOCTYPE svg PUBLIC "-//W3C//DTD SVG 1.1//EN" "http://www.w3.org/Graphics/SVG/1.1/DTD/svg11.dtd">
<svg xmlns="http://www.w3.org/2000/svg" version="1.1" viewBox="0.00 0.00 512.00 512.00">
<path fill="#000000" d="
  M 197.44 399.94
  Q 119.36 400.05 40.23 400.04
  Q 32.15 400.04 28.11 398.85
  C 18.87 396.14 10.90 388.16 8.86 378.67
  Q 7.91 374.24 7.92 366.86
  Q 8.12 225.26 7.92 83.73
  Q 7.90 72.25 9.06 68.36
  C 12.73 55.99 23.66 47.96 36.63 47.96
  Q 262.84 48.04 475.81 47.97
  C 488.55 47.97 499.92 56.60 503.10 68.96
  Q 503.99 72.44 504.00 80.12
  Q 504.00 224.05 503.86 371.75
  C 503.84 388.23 491.25 400.04 474.87 400.03
  Q 395.37 399.97 314.37 400.01
  Q 313.77 400.01 313.88 400.60
  L 318.45 423.46
  A 0.67 0.66 84.1 0 0 319.10 424.00
  Q 333.56 424.02 350.96 423.98
  C 357.87 423.97 360.20 428.29 360.08 434.58
  Q 359.86 445.80 359.98 454.88
  C 360.06 460.86 356.50 464.03 351.05 464.03
  Q 251.28 463.96 160.13 464.02
  C 154.66 464.02 151.91 459.63 151.95 454.67
  Q 152.05 442.51 151.99 432.97
  Q 151.93 424.06 161.63 424.04
  Q 176.76 424.00 192.85 424.03
  Q 193.43 424.03 193.55 423.46
  L 198.09 400.72
  Q 198.25 399.93 197.44 399.94
  Z
  M 36.72 63.96
  C 29.42 63.95 24.01 69.13 24.00 76.48
  Q 24.00 205.17 24.00 334.98
  A 1.02 1.02 0.0 0 0 25.02 336.00
  L 487.05 336.00
  A 0.97 0.96 90.0 0 0 488.01 335.03
  Q 487.99 207.08 488.01 76.85
  C 488.01 71.75 485.79 67.49 481.09 65.15
  Q 478.60 63.91 472.38 63.92
  Q 253.90 64.15 36.72 63.96
  Z
  M 474.69 384.03
  C 482.53 384.04 488.07 379.18 488.02 371.10
  Q 487.97 361.64 488.01 352.76
  A 0.76 0.76 0.0 0 0 487.25 352.00
  L 24.45 352.00
  A 0.47 0.47 0.0 0 0 23.98 352.48
  Q 24.09 359.98 23.94 369.15
  C 23.84 375.18 25.21 379.78 30.63 382.73
  Q 33.05 384.05 39.54 384.05
  Q 257.06 383.93 474.69 384.03
  Z
  M 214.84 400.00
  A 0.34 0.34 0.0 0 0 214.51 400.27
  L 209.84 423.59
  A 0.34 0.34 0.0 0 0 210.17 424.00
  L 301.84 424.00
  A 0.34 0.34 0.0 0 0 302.17 423.59
  L 297.49 400.27
  A 0.34 0.34 0.0 0 0 297.16 400.00
  L 214.84 400.00
  Z
  M 343.99 440.75
  A 0.76 0.76 0.0 0 0 343.23 439.99
  L 168.77 439.99
  A 0.76 0.76 0.0 0 0 168.01 440.75
  L 168.01 447.25
  A 0.76 0.76 0.0 0 0 168.77 448.01
  L 343.23 448.01
  A 0.76 0.76 0.0 0 0 343.99 447.25
  L 343.99 440.75
  Z"
/>
<rect fill="#000000" x="240.11" y="360.06" width="31.78" height="15.88" rx="7.56"/>
</svg>
