<?xml version="1.0" encoding="UTF-8" standalone="no"?>
<!DOCTYPE svg PUBLIC "-//W3C//DTD SVG 1.1//EN" "http://www.w3.org/Graphics/SVG/1.1/DTD/svg11.dtd">
<svg xmlns="http://www.w3.org/2000/svg" version="1.1" viewBox="0.00 0.00 860.00 917.00">
<g stroke-width="2.00" fill="none" stroke-linecap="butt">
<path stroke="#7c7c7c" vector-effect="non-scaling-stroke" d="
  M 359.76 193.35
  C 371.36 198.19 383.72 188.61 382.87 176.29
  Q 382.55 171.65 379.33 166.33
  C 358.16 131.31 325.66 107.15 282.87 116.70
  C 273.01 118.90 262.74 123.27 253.67 128.17
  C 232.04 139.85 209.99 152.67 186.96 158.45
  C 154.73 166.52 119.65 156.55 100.75 128.16
  Q 96.38 121.59 91.41 109.74
  C 83.62 91.16 73.98 73.21 64.86 54.72
  Q 60.91 46.71 58.02 44.12
  Q 51.72 38.48 42.91 40.48
  C 31.08 43.16 27.15 55.35 31.93 65.56
  Q 50.13 104.38 66.17 136.38
  C 86.41 176.79 125.80 197.71 170.62 194.45
  Q 201.85 192.18 226.34 180.29
  Q 250.22 168.71 272.16 156.20
  C 285.02 148.86 299.88 144.37 314.31 150.48
  C 326.15 155.49 335.94 165.11 343.43 175.68
  Q 347.66 181.66 351.77 187.13
  Q 354.91 191.32 359.76 193.35"
/>
<path stroke="#7c7c7c" vector-effect="non-scaling-stroke" d="
  M 742.40 822.26
  C 788.14 792.73 819.67 744.77 827.84 690.77
  C 834.12 649.21 826.70 607.08 808.16 568.76
  Q 794.68 540.91 780.56 513.92
  Q 723.52 404.87 682.90 326.15
  Q 676.20 313.15 668.88 298.60
  Q 659.85 280.62 647.96 265.46
  C 622.64 233.16 587.76 212.45 547.96 203.73
  Q 479.38 188.71 417.08 213.20
  C 349.26 239.87 300.84 298.48 284.69 369.19
  C 274.72 412.78 282.61 458.35 305.63 496.14
  C 359.40 584.37 411.00 672.56 462.51 755.98
  Q 476.78 779.09 491.22 794.57
  C 524.91 830.70 568.06 850.06 617.31 855.22
  Q 626.84 856.21 634.25 855.95
  Q 693.43 853.87 742.40 822.26"
/>
<path stroke="#7c7c7c" vector-effect="non-scaling-stroke" d="
  M 632.79 304.68
  C 612.47 267.04 578.20 241.19 536.12 233.72
  Q 496.71 226.72 457.23 235.72
  C 412.74 245.86 375.06 273.02 346.61 309.07
  C 308.83 356.96 301.19 420.55 332.61 473.60
  Q 395.46 579.71 496.85 745.92
  Q 527.01 795.36 582.53 815.26
  C 624.45 830.28 667.52 823.42 706.34 803.16
  C 757.42 776.52 796.58 732.42 796.94 672.68
  C 797.13 640.83 790.56 609.39 776.12 581.33
  Q 690.16 414.27 642.17 322.35
  Q 637.52 313.46 632.79 304.68"
/>
<path stroke="#7c7c7c" vector-effect="non-scaling-stroke" d="
  M 465.42 323.13
  C 459.92 313.41 448.73 310.76 439.81 317.40
  Q 432.25 323.03 433.11 332.70
  Q 433.42 336.17 436.78 342.25
  Q 465.70 394.46 492.60 441.73
  C 495.62 447.03 501.39 449.89 506.08 452.93
  Q 506.58 453.26 507.17 453.18
  C 521.70 451.23 529.71 438.16 522.22 424.63
  Q 494.62 374.72 465.42 323.13"
/>
</g>
<path fill="#f7f7f7" d="
  M 0.00 0.00
  L 860.00 0.00
  L 860.00 917.00
  L 0.00 917.00
  L 0.00 0.00
  Z
  M 359.76 193.35
  C 371.36 198.19 383.72 188.61 382.87 176.29
  Q 382.55 171.65 379.33 166.33
  C 358.16 131.31 325.66 107.15 282.87 116.70
  C 273.01 118.90 262.74 123.27 253.67 128.17
  C 232.04 139.85 209.99 152.67 186.96 158.45
  C 154.73 166.52 119.65 156.55 100.75 128.16
  Q 96.38 121.59 91.41 109.74
  C 83.62 91.16 73.98 73.21 64.86 54.72
  Q 60.91 46.71 58.02 44.12
  Q 51.72 38.48 42.91 40.48
  C 31.08 43.16 27.15 55.35 31.93 65.56
  Q 50.13 104.38 66.17 136.38
  C 86.41 176.79 125.80 197.71 170.62 194.45
  Q 201.85 192.18 226.34 180.29
  Q 250.22 168.71 272.16 156.20
  C 285.02 148.86 299.88 144.37 314.31 150.48
  C 326.15 155.49 335.94 165.11 343.43 175.68
  Q 347.66 181.66 351.77 187.13
  Q 354.91 191.32 359.76 193.35
  Z
  M 742.40 822.26
  C 788.14 792.73 819.67 744.77 827.84 690.77
  C 834.12 649.21 826.70 607.08 808.16 568.76
  Q 794.68 540.91 780.56 513.92
  Q 723.52 404.87 682.90 326.15
  Q 676.20 313.15 668.88 298.60
  Q 659.85 280.62 647.96 265.46
  C 622.64 233.16 587.76 212.45 547.96 203.73
  Q 479.38 188.71 417.08 213.20
  C 349.26 239.87 300.84 298.48 284.69 369.19
  C 274.72 412.78 282.61 458.35 305.63 496.14
  C 359.40 584.37 411.00 672.56 462.51 755.98
  Q 476.78 779.09 491.22 794.57
  C 524.91 830.70 568.06 850.06 617.31 855.22
  Q 626.84 856.21 634.25 855.95
  Q 693.43 853.87 742.40 822.26
  Z"
/>
<path fill="#000000" d="
  M 359.76 193.35
  Q 354.91 191.32 351.77 187.13
  Q 347.66 181.66 343.43 175.68
  C 335.94 165.11 326.15 155.49 314.31 150.48
  C 299.88 144.37 285.02 148.86 272.16 156.20
  Q 250.22 168.71 226.34 180.29
  Q 201.85 192.18 170.62 194.45
  C 125.80 197.71 86.41 176.79 66.17 136.38
  Q 50.13 104.38 31.93 65.56
  C 27.15 55.35 31.08 43.16 42.91 40.48
  Q 51.72 38.48 58.02 44.12
  Q 60.91 46.71 64.86 54.72
  C 73.98 73.21 83.62 91.16 91.41 109.74
  Q 96.38 121.59 100.75 128.16
  C 119.65 156.55 154.73 166.52 186.96 158.45
  C 209.99 152.67 232.04 139.85 253.67 128.17
  C 262.74 123.27 273.01 118.90 282.87 116.70
  C 325.66 107.15 358.16 131.31 379.33 166.33
  Q 382.55 171.65 382.87 176.29
  C 383.72 188.61 371.36 198.19 359.76 193.35
  Z"
/>
<path fill="#000000" d="
  M 827.84 690.77
  C 819.67 744.77 788.14 792.73 742.40 822.26
  Q 693.43 853.87 634.25 855.95
  Q 626.84 856.21 617.31 855.22
  C 568.06 850.06 524.91 830.70 491.22 794.57
  Q 476.78 779.09 462.51 755.98
  C 411.00 672.56 359.40 584.37 305.63 496.14
  C 282.61 458.35 274.72 412.78 284.69 369.19
  C 300.84 298.48 349.26 239.87 417.08 213.20
  Q 479.38 188.71 547.96 203.73
  C 587.76 212.45 622.64 233.16 647.96 265.46
  Q 659.85 280.62 668.88 298.60
  Q 676.20 313.15 682.90 326.15
  Q 723.52 404.87 780.56 513.92
  Q 794.68 540.91 808.16 568.76
  C 826.70 607.08 834.12 649.21 827.84 690.77
  Z
  M 632.79 304.68
  C 612.47 267.04 578.20 241.19 536.12 233.72
  Q 496.71 226.72 457.23 235.72
  C 412.74 245.86 375.06 273.02 346.61 309.07
  C 308.83 356.96 301.19 420.55 332.61 473.60
  Q 395.46 579.71 496.85 745.92
  Q 527.01 795.36 582.53 815.26
  C 624.45 830.28 667.52 823.42 706.34 803.16
  C 757.42 776.52 796.58 732.42 796.94 672.68
  C 797.13 640.83 790.56 609.39 776.12 581.33
  Q 690.16 414.27 642.17 322.35
  Q 637.52 313.46 632.79 304.68
  Z"
/>
<path fill="#f7f7f7" d="
  M 536.12 233.72
  C 578.20 241.19 612.47 267.04 632.79 304.68
  Q 637.52 313.46 642.17 322.35
  Q 690.16 414.27 776.12 581.33
  C 790.56 609.39 797.13 640.83 796.94 672.68
  C 796.58 732.42 757.42 776.52 706.34 803.16
  C 667.52 823.42 624.45 830.28 582.53 815.26
  Q 527.01 795.36 496.85 745.92
  Q 395.46 579.71 332.61 473.60
  C 301.19 420.55 308.83 356.96 346.61 309.07
  C 375.06 273.02 412.74 245.86 457.23 235.72
  Q 496.71 226.72 536.12 233.72
  Z
  M 465.42 323.13
  C 459.92 313.41 448.73 310.76 439.81 317.40
  Q 432.25 323.03 433.11 332.70
  Q 433.42 336.17 436.78 342.25
  Q 465.70 394.46 492.60 441.73
  C 495.62 447.03 501.39 449.89 506.08 452.93
  Q 506.58 453.26 507.17 453.18
  C 521.70 451.23 529.71 438.16 522.22 424.63
  Q 494.62 374.72 465.42 323.13
  Z"
/>
<path fill="#000000" d="
  M 439.81 317.40
  C 448.73 310.76 459.92 313.41 465.42 323.13
  Q 494.62 374.72 522.22 424.63
  C 529.71 438.16 521.70 451.23 507.17 453.18
  Q 506.58 453.26 506.08 452.93
  C 501.39 449.89 495.62 447.03 492.60 441.73
  Q 465.70 394.46 436.78 342.25
  Q 433.42 336.17 433.11 332.70
  Q 432.25 323.03 439.81 317.40
  Z"
/>
</svg>
