<svg width="16" height="17" viewBox="0 0 16 17" fill="none" xmlns="http://www.w3.org/2000/svg">
<path d="M2 3.49998H14M6 9.49998L4 5.49998L2 9.49998M14 9.49998L12 5.49998L10 9.49998M9 3.49998C9 4.05227 8.55228 3.99998 8 3.99998C7.44772 3.99998 7 4.05227 7 3.49998C7 2.9477 7.44772 2.99998 8 2.99998C8.55228 2.99998 9 2.9477 9 3.49998ZM6.12132 13.6507C4.94975 14.7831 3.05025 14.7831 1.87868 13.6507C1.26644 13.059 0.974146 12.2752 1.00179 11.5H6.99821C7.02585 12.2752 6.73356 13.059 6.12132 13.6507ZM14.1213 13.6507C12.9497 14.7831 11.0503 14.7831 9.87868 13.6507C9.26644 13.059 8.97415 12.2752 9.00179 11.5H14.9982C15.0259 12.2752 14.7336 13.059 14.1213 13.6507Z" stroke="#1F1F33" stroke-width="1.5" stroke-linecap="round" stroke-linejoin="round"/>
</svg>
