<?xml version="1.0" encoding="UTF-8" standalone="no"?>
<!DOCTYPE svg PUBLIC "-//W3C//DTD SVG 1.1//EN" "http://www.w3.org/Graphics/SVG/1.1/DTD/svg11.dtd">
<svg xmlns="http://www.w3.org/2000/svg" version="1.1" viewBox="0.00 0.00 960.00 540.00">
<g stroke-width="2.00" fill="none" stroke-linecap="butt">
<path stroke="#7e7e7e" vector-effect="non-scaling-stroke" d="
  M 915.51 486.91
  L 551.98 486.91"
/>
<path stroke="#6e6e6e" vector-effect="non-scaling-stroke" d="
  M 551.98 486.91
  L 407.97 487.07"
/>
<path stroke="#7e7e7e" vector-effect="non-scaling-stroke" d="
  M 407.97 487.07
  L 45.17 486.89"
/>
<path stroke="#c7c7c7" vector-effect="non-scaling-stroke" d="
  M 407.97 487.07
  Q 406.78 491.79 407.38 496.46
  Q 407.47 497.21 408.22 497.27
  Q 480.38 503.87 551.88 497.29
  Q 552.65 497.22 552.76 496.46
  Q 553.51 491.05 551.98 486.91"
/>
<path stroke="#b0b0b0" vector-effect="non-scaling-stroke" d="
  M 937.51 509.99
  L 23.09 509.93"
/>
</g>
<path fill="#252525" d="
  M 915.51 486.91
  L 551.98 486.91
  L 407.97 487.07
  L 45.17 486.89
  Q 45.17 260.55 45.06 34.50
  C 45.05 18.35 57.35 5.16 73.68 5.16
  Q 470.98 5.16 887.08 5.16
  C 899.60 5.16 910.09 13.19 914.15 24.90
  Q 915.51 28.82 915.51 38.77
  Q 915.49 262.68 915.51 486.91
  Z
  M 894.78 29.82
  A 0.49 0.49 0.0 0 0 894.29 29.33
  L 65.99 29.33
  A 0.49 0.49 0.0 0 0 65.50 29.82
  L 65.50 463.46
  A 0.49 0.49 0.0 0 0 65.99 463.95
  L 894.29 463.95
  A 0.49 0.49 0.0 0 0 894.78 463.46
  L 894.78 29.82
  Z"
/>
<path fill="#d7d7d7" d="
  M 45.17 486.89
  L 407.97 487.07
  Q 406.78 491.79 407.38 496.46
  Q 407.47 497.21 408.22 497.27
  Q 480.38 503.87 551.88 497.29
  Q 552.65 497.22 552.76 496.46
  Q 553.51 491.05 551.98 486.91
  L 915.51 486.91
  L 936.95 486.90
  A 0.58 0.57 0.0 0 1 937.53 487.47
  L 937.51 509.99
  L 23.09 509.93
  L 23.05 487.67
  Q 23.05 486.84 23.88 486.84
  L 45.17 486.89
  Z"
/>
<path fill="#b7b7b7" d="
  M 551.98 486.91
  Q 553.51 491.05 552.76 496.46
  Q 552.65 497.22 551.88 497.29
  Q 480.38 503.87 408.22 497.27
  Q 407.47 497.21 407.38 496.46
  Q 406.78 491.79 407.97 487.07
  L 551.98 486.91
  Z"
/>
<path fill="#898989" d="
  M 23.09 509.93
  L 937.51 509.99
  C 937.58 515.21 934.81 519.49 929.50 519.49
  Q 478.78 519.49 30.75 519.49
  Q 28.54 519.49 26.81 518.13
  Q 22.79 514.99 23.09 509.93
  Z"
/>
</svg>
