<svg width="16" height="17" viewBox="0 0 16 17" fill="none" xmlns="http://www.w3.org/2000/svg">
<g clip-path="url(#clip0_166_234)">
<path d="M6.00004 15.1667C6.36823 15.1667 6.66671 14.8682 6.66671 14.5C6.66671 14.1319 6.36823 13.8334 6.00004 13.8334C5.63185 13.8334 5.33337 14.1319 5.33337 14.5C5.33337 14.8682 5.63185 15.1667 6.00004 15.1667Z" stroke="#1F1F33" stroke-width="1.5" stroke-linecap="round" stroke-linejoin="round"/>
<path d="M13.3333 15.1667C13.7015 15.1667 14 14.8682 14 14.5C14 14.1319 13.7015 13.8334 13.3333 13.8334C12.9651 13.8334 12.6666 14.1319 12.6666 14.5C12.6666 14.8682 12.9651 15.1667 13.3333 15.1667Z" stroke="#1F1F33" stroke-width="1.5" stroke-linecap="round" stroke-linejoin="round"/>
<path d="M0.666626 1.16663H3.33329L5.11996 10.0933C5.18092 10.4002 5.3479 10.6759 5.59166 10.8722C5.83541 11.0684 6.14042 11.1726 6.45329 11.1666H12.9333C13.2462 11.1726 13.5512 11.0684 13.7949 10.8722C14.0387 10.6759 14.2057 10.4002 14.2666 10.0933L15.3333 4.49996H3.99996" stroke="#1F1F33" stroke-width="1.5" stroke-linecap="round" stroke-linejoin="round"/>
</g>
<defs>
<clipPath id="clip0_166_234">
<rect width="16" height="16" fill="white" transform="translate(0 0.5)"/>
</clipPath>
</defs>
</svg>
